<?xml version="1.0" standalone="no"?><!DOCTYPE svg PUBLIC "-//W3C//DTD SVG 1.1//EN" "http://www.w3.org/Graphics/SVG/1.1/DTD/svg11.dtd"><svg t="1656421411542" class="icon" viewBox="0 0 1024 1024" version="1.1" xmlns="http://www.w3.org/2000/svg" p-id="2268" xmlns:xlink="http://www.w3.org/1999/xlink" width="200" height="200"><defs><style type="text/css"></style></defs><path d="M289.1776 690.4832h443.1872c58.3168 0 95.0784-62.72 66.6624-113.6128l-227.5328-406.9888c-29.5424-52.7872-105.7792-51.9168-134.0928 1.536l-215.6544 406.9888c-26.9824 50.8416 9.8816 112.0768 67.4304 112.0768z" fill="#FFDF99" p-id="2269"></path><path d="M796.7232 841.472H223.3856c-37.7856 0-70.144-27.0848-76.8512-64.256L74.5472 376.7296C63.232 313.6512 128.512 264.5504 185.9584 292.9152l283.3408 139.8784c21.4528 10.5984 46.592 10.752 68.1984 0.4096l299.008-142.8992c57.4976-27.4944 121.9072 21.76 110.4896 84.48l-73.472 402.6368a78.01856 78.01856 0 0 1-76.8 64.0512z" fill="#FF5D50" p-id="2270"></path><path d="M693.8624 720.64h-366.08c-28.2624 0-51.2-22.9376-51.2-51.2s22.9376-51.2 51.2-51.2h366.08c28.2624 0 51.2 22.9376 51.2 51.2s-22.9376 51.2-51.2 51.2z" fill="#FFDF99" p-id="2271"></path></svg>