<?xml version="1.0" standalone="no"?><!DOCTYPE svg PUBLIC "-//W3C//DTD SVG 1.1//EN" "http://www.w3.org/Graphics/SVG/1.1/DTD/svg11.dtd"><svg t="1656433769864" class="icon" viewBox="0 0 1024 1024" version="1.1" xmlns="http://www.w3.org/2000/svg" p-id="2735" xmlns:xlink="http://www.w3.org/1999/xlink" width="200" height="200"><defs><style type="text/css"></style></defs><path d="M702.208 483.3792c52.2752-34.2528 86.8352-93.2864 86.8352-160.4608 0-105.8816-85.8624-191.744-191.744-191.744S405.5552 217.0368 405.5552 322.9184c0 67.2768 34.7136 126.464 87.1424 160.6656-146.5856 45.7216-252.1088 184.832-252.1088 346.112 0 34.9696 28.3648 63.3344 63.2832 63.3344h586.8544c34.9696 0 63.2832-28.3648 63.2832-63.3344v-5.3248c0-160.4608-105.984-296.1408-251.8016-340.992z" fill="#FFDF99" p-id="2736"></path><path d="M543.232 483.3792c52.2752-34.2528 86.8352-93.2864 86.8352-160.4608 0-105.8816-85.8624-191.744-191.744-191.744S246.528 217.0368 246.528 322.9184c0 67.2768 34.7136 126.464 87.1424 160.6656-146.5856 45.7216-252.1088 184.832-252.1088 346.112 0 34.9696 28.3648 63.3344 63.2832 63.3344h586.8544c34.9696 0 63.2832-28.3648 63.2832-63.3344v-5.3248c0.0512-160.4608-105.9328-296.1408-251.7504-340.992z" fill="#FF5D50" p-id="2737"></path></svg>