<?xml version="1.0" standalone="no"?><!DOCTYPE svg PUBLIC "-//W3C//DTD SVG 1.1//EN" "http://www.w3.org/Graphics/SVG/1.1/DTD/svg11.dtd"><svg t="1656421426478" class="icon" viewBox="0 0 1024 1024" version="1.1" xmlns="http://www.w3.org/2000/svg" p-id="2424" xmlns:xlink="http://www.w3.org/1999/xlink" width="200" height="200"><defs><style type="text/css"></style></defs><path d="M510.976 514.8672m-424.2944 0a424.2944 424.2944 0 1 0 848.5888 0 424.2944 424.2944 0 1 0-848.5888 0Z" fill="#FF5D50" p-id="2425"></path><path d="M800.768 466.176L614.4 281.8048c-13.1072-12.9536-35.3792-3.6864-35.3792 14.7456v79.4624c-72.6528-0.1024-289.1264 23.808-353.536 305.2544-4.608 20.224 19.5584 33.9968 34.6112 19.7632 59.1872-56.1152 158.1056-122.2656 318.9248-118.5792v85.1456c0 18.4832 22.3744 27.7504 35.4304 14.6432l186.368-186.6752a20.736 20.736 0 0 0-0.0512-29.3888z" fill="#FFDF99" p-id="2426"></path></svg>